<!DOCTYPE svg PUBLIC "-//W3C//DTD SVG 1.1//EN" "http://www.w3.org/Graphics/SVG/1.1/DTD/svg11.dtd">
<svg fill="currentColor" width="800px" height="800px" viewBox="0 0 512 512" xmlns="http://www.w3.org/2000/svg">
<g id="SVGRepo_bgCarrier" stroke-width="0"/>
<g id="SVGRepo_tracerCarrier" stroke-linecap="round" stroke-linejoin="round"/>
<g id="SVGRepo_iconCarrier">
<path d="M256 8C119 8 8 119 8 256s111 248 248 248 248-111 248-248S393 8 256 8zm-16 328c0 8.8-7.2 16-16 16h-48c-8.8 0-16-7.2-16-16V176c0-8.8 7.2-16 16-16h48c8.8 0 16 7.2 16 16v160zm112 0c0 8.8-7.2 16-16 16h-48c-8.8 0-16-7.2-16-16V176c0-8.8 7.2-16 16-16h48c8.8 0 16 7.2 16 16v160z"/>
</g>
</svg>